<mxfile host="app.diagrams.net" modified="2022-12-19T09:26:09.626Z" agent="5.0 (Macintosh; Intel Mac OS X 10_15_7) AppleWebKit/605.1.15 (KHTML, like Gecko) Version/16.1 Safari/605.1.15" etag="XmpeSIDWdv5QOABpf0zp" version="20.7.4" type="github">
  <diagram id="C5RBs43oDa-KdzZeNtuy" name="Page-1">
    <mxGraphModel dx="954" dy="675" grid="1" gridSize="10" guides="1" tooltips="1" connect="1" arrows="1" fold="1" page="1" pageScale="1" pageWidth="827" pageHeight="1169" math="0" shadow="0">
      <root>
        <mxCell id="WIyWlLk6GJQsqaUBKTNV-0" />
        <mxCell id="WIyWlLk6GJQsqaUBKTNV-1" parent="WIyWlLk6GJQsqaUBKTNV-0" />
        <mxCell id="hN30urFHgmy9SSbcr_8F-3" style="edgeStyle=orthogonalEdgeStyle;rounded=0;orthogonalLoop=1;jettySize=auto;html=1;entryX=0.5;entryY=0;entryDx=0;entryDy=0;" edge="1" parent="WIyWlLk6GJQsqaUBKTNV-1" source="hN30urFHgmy9SSbcr_8F-1" target="hN30urFHgmy9SSbcr_8F-2">
          <mxGeometry relative="1" as="geometry" />
        </mxCell>
        <mxCell id="hN30urFHgmy9SSbcr_8F-1" value="Start" style="strokeWidth=2;html=1;shape=mxgraph.flowchart.start_2;whiteSpace=wrap;" vertex="1" parent="WIyWlLk6GJQsqaUBKTNV-1">
          <mxGeometry x="610" y="220" width="100" height="100" as="geometry" />
        </mxCell>
        <mxCell id="hN30urFHgmy9SSbcr_8F-7" style="edgeStyle=orthogonalEdgeStyle;rounded=0;orthogonalLoop=1;jettySize=auto;html=1;entryX=0.5;entryY=0;entryDx=0;entryDy=0;" edge="1" parent="WIyWlLk6GJQsqaUBKTNV-1" source="hN30urFHgmy9SSbcr_8F-2" target="hN30urFHgmy9SSbcr_8F-11">
          <mxGeometry relative="1" as="geometry">
            <mxPoint x="660" y="450" as="targetPoint" />
          </mxGeometry>
        </mxCell>
        <mxCell id="hN30urFHgmy9SSbcr_8F-2" value="x" style="shape=parallelogram;html=1;strokeWidth=2;perimeter=parallelogramPerimeter;whiteSpace=wrap;rounded=1;arcSize=12;size=0.23;" vertex="1" parent="WIyWlLk6GJQsqaUBKTNV-1">
          <mxGeometry x="610" y="350" width="100" height="60" as="geometry" />
        </mxCell>
        <mxCell id="hN30urFHgmy9SSbcr_8F-9" style="edgeStyle=orthogonalEdgeStyle;rounded=0;orthogonalLoop=1;jettySize=auto;html=1;entryX=0.5;entryY=0;entryDx=0;entryDy=0;" edge="1" parent="WIyWlLk6GJQsqaUBKTNV-1" source="hN30urFHgmy9SSbcr_8F-4" target="hN30urFHgmy9SSbcr_8F-12">
          <mxGeometry relative="1" as="geometry">
            <mxPoint x="660" y="710" as="targetPoint" />
          </mxGeometry>
        </mxCell>
        <mxCell id="hN30urFHgmy9SSbcr_8F-10" value="Yes" style="edgeLabel;html=1;align=center;verticalAlign=middle;resizable=0;points=[];" vertex="1" connectable="0" parent="hN30urFHgmy9SSbcr_8F-9">
          <mxGeometry x="-0.0333" y="1" relative="1" as="geometry">
            <mxPoint x="-21" as="offset" />
          </mxGeometry>
        </mxCell>
        <mxCell id="hN30urFHgmy9SSbcr_8F-14" style="edgeStyle=orthogonalEdgeStyle;rounded=0;orthogonalLoop=1;jettySize=auto;html=1;entryX=1;entryY=0.5;entryDx=0;entryDy=0;" edge="1" parent="WIyWlLk6GJQsqaUBKTNV-1" source="hN30urFHgmy9SSbcr_8F-4" target="hN30urFHgmy9SSbcr_8F-13">
          <mxGeometry relative="1" as="geometry" />
        </mxCell>
        <mxCell id="hN30urFHgmy9SSbcr_8F-15" value="No" style="edgeLabel;html=1;align=center;verticalAlign=middle;resizable=0;points=[];" vertex="1" connectable="0" parent="hN30urFHgmy9SSbcr_8F-14">
          <mxGeometry x="-0.4" relative="1" as="geometry">
            <mxPoint as="offset" />
          </mxGeometry>
        </mxCell>
        <mxCell id="hN30urFHgmy9SSbcr_8F-4" value="a &amp;gt; 35" style="strokeWidth=2;html=1;shape=mxgraph.flowchart.decision;whiteSpace=wrap;" vertex="1" parent="WIyWlLk6GJQsqaUBKTNV-1">
          <mxGeometry x="610" y="550" width="100" height="100" as="geometry" />
        </mxCell>
        <mxCell id="hN30urFHgmy9SSbcr_8F-8" style="edgeStyle=orthogonalEdgeStyle;rounded=0;orthogonalLoop=1;jettySize=auto;html=1;entryX=0.5;entryY=0;entryDx=0;entryDy=0;entryPerimeter=0;" edge="1" parent="WIyWlLk6GJQsqaUBKTNV-1" target="hN30urFHgmy9SSbcr_8F-4">
          <mxGeometry relative="1" as="geometry">
            <mxPoint x="660" y="510" as="sourcePoint" />
          </mxGeometry>
        </mxCell>
        <mxCell id="hN30urFHgmy9SSbcr_8F-11" value="&lt;span style=&quot;&quot;&gt;a = &amp;nbsp;x * x - 2 * x,&lt;/span&gt;&lt;br style=&quot;border-color: var(--border-color);&quot;&gt;&lt;span style=&quot;&quot;&gt;b = ( x + x * x - 10) ^ 0.5&lt;/span&gt;" style="html=1;dashed=0;whitespace=wrap;strokeWidth=2;" vertex="1" parent="WIyWlLk6GJQsqaUBKTNV-1">
          <mxGeometry x="580" y="460" width="160" height="50" as="geometry" />
        </mxCell>
        <mxCell id="hN30urFHgmy9SSbcr_8F-18" style="edgeStyle=orthogonalEdgeStyle;rounded=0;orthogonalLoop=1;jettySize=auto;html=1;entryX=1;entryY=0.5;entryDx=0;entryDy=0;entryPerimeter=0;" edge="1" parent="WIyWlLk6GJQsqaUBKTNV-1" source="hN30urFHgmy9SSbcr_8F-12" target="hN30urFHgmy9SSbcr_8F-16">
          <mxGeometry relative="1" as="geometry" />
        </mxCell>
        <mxCell id="hN30urFHgmy9SSbcr_8F-12" value="y = (a / 2) + ((a + b) / 2)" style="html=1;dashed=0;whitespace=wrap;strokeWidth=2;" vertex="1" parent="WIyWlLk6GJQsqaUBKTNV-1">
          <mxGeometry x="580" y="710" width="160" height="50" as="geometry" />
        </mxCell>
        <mxCell id="hN30urFHgmy9SSbcr_8F-17" style="edgeStyle=orthogonalEdgeStyle;rounded=0;orthogonalLoop=1;jettySize=auto;html=1;exitX=0.5;exitY=1;exitDx=0;exitDy=0;entryX=0.5;entryY=0;entryDx=0;entryDy=0;entryPerimeter=0;" edge="1" parent="WIyWlLk6GJQsqaUBKTNV-1" source="hN30urFHgmy9SSbcr_8F-13" target="hN30urFHgmy9SSbcr_8F-16">
          <mxGeometry relative="1" as="geometry" />
        </mxCell>
        <mxCell id="hN30urFHgmy9SSbcr_8F-13" value="y = 5 * ((a + b) + 3)" style="html=1;dashed=0;whitespace=wrap;strokeWidth=2;" vertex="1" parent="WIyWlLk6GJQsqaUBKTNV-1">
          <mxGeometry x="370" y="575" width="160" height="50" as="geometry" />
        </mxCell>
        <mxCell id="hN30urFHgmy9SSbcr_8F-20" style="edgeStyle=orthogonalEdgeStyle;rounded=0;orthogonalLoop=1;jettySize=auto;html=1;entryX=1;entryY=0.5;entryDx=0;entryDy=0;entryPerimeter=0;" edge="1" parent="WIyWlLk6GJQsqaUBKTNV-1" source="hN30urFHgmy9SSbcr_8F-16" target="hN30urFHgmy9SSbcr_8F-19">
          <mxGeometry relative="1" as="geometry" />
        </mxCell>
        <mxCell id="hN30urFHgmy9SSbcr_8F-16" value="y" style="strokeWidth=2;html=1;shape=mxgraph.flowchart.document2;whiteSpace=wrap;size=0.25;" vertex="1" parent="WIyWlLk6GJQsqaUBKTNV-1">
          <mxGeometry x="400" y="705" width="100" height="60" as="geometry" />
        </mxCell>
        <mxCell id="hN30urFHgmy9SSbcr_8F-21" style="edgeStyle=orthogonalEdgeStyle;rounded=0;orthogonalLoop=1;jettySize=auto;html=1;entryX=0.5;entryY=0;entryDx=0;entryDy=0;entryPerimeter=0;" edge="1" parent="WIyWlLk6GJQsqaUBKTNV-1" source="hN30urFHgmy9SSbcr_8F-19" target="hN30urFHgmy9SSbcr_8F-22">
          <mxGeometry relative="1" as="geometry">
            <mxPoint x="270" y="840" as="targetPoint" />
          </mxGeometry>
        </mxCell>
        <mxCell id="hN30urFHgmy9SSbcr_8F-23" value="No" style="edgeLabel;html=1;align=center;verticalAlign=middle;resizable=0;points=[];" vertex="1" connectable="0" parent="hN30urFHgmy9SSbcr_8F-21">
          <mxGeometry x="-0.2727" relative="1" as="geometry">
            <mxPoint as="offset" />
          </mxGeometry>
        </mxCell>
        <mxCell id="hN30urFHgmy9SSbcr_8F-24" style="edgeStyle=orthogonalEdgeStyle;rounded=0;orthogonalLoop=1;jettySize=auto;html=1;entryX=0;entryY=0.5;entryDx=0;entryDy=0;" edge="1" parent="WIyWlLk6GJQsqaUBKTNV-1" source="hN30urFHgmy9SSbcr_8F-19" target="hN30urFHgmy9SSbcr_8F-2">
          <mxGeometry relative="1" as="geometry">
            <mxPoint x="590" y="390" as="targetPoint" />
            <Array as="points">
              <mxPoint x="270" y="380" />
            </Array>
          </mxGeometry>
        </mxCell>
        <mxCell id="hN30urFHgmy9SSbcr_8F-25" value="Yes" style="edgeLabel;html=1;align=center;verticalAlign=middle;resizable=0;points=[];" vertex="1" connectable="0" parent="hN30urFHgmy9SSbcr_8F-24">
          <mxGeometry x="-0.6923" y="-2" relative="1" as="geometry">
            <mxPoint x="-12" y="1" as="offset" />
          </mxGeometry>
        </mxCell>
        <mxCell id="hN30urFHgmy9SSbcr_8F-19" value="New number?" style="strokeWidth=2;html=1;shape=mxgraph.flowchart.decision;whiteSpace=wrap;" vertex="1" parent="WIyWlLk6GJQsqaUBKTNV-1">
          <mxGeometry x="220" y="685" width="100" height="100" as="geometry" />
        </mxCell>
        <mxCell id="hN30urFHgmy9SSbcr_8F-22" value="Stop" style="strokeWidth=2;html=1;shape=mxgraph.flowchart.start_2;whiteSpace=wrap;" vertex="1" parent="WIyWlLk6GJQsqaUBKTNV-1">
          <mxGeometry x="220" y="840" width="100" height="100" as="geometry" />
        </mxCell>
      </root>
    </mxGraphModel>
  </diagram>
</mxfile>
